<?xml version="1.0" encoding="UTF-8" standalone="no"?>
<!-- Created with Inkscape (http://www.inkscape.org/) -->
<svg
   xmlns:svg="http://www.w3.org/2000/svg"
   xmlns="http://www.w3.org/2000/svg"
   xmlns:xlink="http://www.w3.org/1999/xlink"
   version="1.0"
   width="300"
   height="300"
   id="svg2">
  <defs
     id="defs5" />
  <g
     transform="translate(0,2)"
     id="g2379">
    <use
       transform="matrix(0,1,-1,0,298,-1.999952)"
       id="use3030"
       x="0"
       y="0"
       width="300"
       height="300"
       xlink:href="#path2329" />
    <path
       d="M 41.959304,148 L 258.0406,148"
       style="fill:none;fill-opacity:0.75;fill-rule:evenodd;stroke:black;stroke-width:4.375;stroke-linecap:butt;stroke-linejoin:miter;stroke-miterlimit:4;stroke-dasharray:none;stroke-opacity:1"
       id="path2329" />
    <rect
       width="165.21336"
       height="165.21336"
       x="128.11108"
       y="-84.020927"
       transform="matrix(0.707107,0.707107,-0.707107,0.707107,0,0)"
       style="opacity:1;fill:none;fill-opacity:1;fill-rule:evenodd;stroke:black;stroke-width:4.37500715;stroke-linecap:round;stroke-linejoin:round;stroke-miterlimit:4;stroke-dasharray:none;stroke-opacity:1"
       id="rect3034" />
    <g
       id="g1887">
      <g
         transform="translate(-1.49996,-2.5)"
         id="g1881">
        <path
           d="M 58 200 A 23 23 0 1 1  12,200 A 23 23 0 1 1  58 200 z"
           transform="matrix(0.839196,0,0,0.839196,122.1281,-130.8392)"
           style="fill:#007fff;fill-opacity:1;fill-rule:evenodd;stroke:#000070;stroke-width:4.46856308;stroke-miterlimit:4;stroke-dasharray:none;stroke-dashoffset:0;stroke-opacity:1"
           id="path2317" />
        <use
           transform="translate(0,227)"
           id="use1879"
           x="0"
           y="0"
           width="300"
           height="300"
           xlink:href="#path2317" />
      </g>
      <use
         transform="matrix(0,1,-1,0,298,-2)"
         id="use1885"
         x="0"
         y="0"
         width="300"
         height="300"
         xlink:href="#g1881" />
    </g>
    <g
       transform="translate(1.2256,5e-6)"
       id="g2784" />
    <g
       transform="translate(-1.000201,1.001328e-4)"
       id="g2830">
      <g
         transform="matrix(0.707107,-0.707107,0.707107,0.707107,-119.7178,89.41421)"
         id="g2814">
        <g
           transform="translate(1.2256,5e-6)"
           id="g2818" />
      </g>
      <use
         transform="matrix(0,1,-1,0,299.0001,-3.000302)"
         id="use2824"
         x="0"
         y="0"
         width="300"
         height="300"
         xlink:href="#g2814" />
      <use
         transform="matrix(-1,0,0,-1,302.0004,295.9998)"
         id="use2826"
         x="0"
         y="0"
         width="300"
         height="300"
         xlink:href="#g2814" />
      <use
         transform="matrix(0,-1,1,0,3.000302,299.0001)"
         id="use2828"
         x="0"
         y="0"
         width="300"
         height="300"
         xlink:href="#g2814" />
    </g>
  </g>
</svg>
